<svg version="1.1" id="Layer_1" xmlns="http://www.w3.org/2000/svg" x="0" y="0" viewBox="0 0 512 512" style="enable-background:new 0 0 512 512" xml:space="preserve"><style>.st1{fill:#f3ba2f}</style><path style="fill:none" d="M222.49 203.85h72v72h-72z"/><path class="st1" d="M195.65 231.72 256.37 171l60.75 60.74 35.33-35.33-96.08-96.07-96.05 96.05 35.33 35.33m-95.61 24.95 35.33-35.33 35.33 35.32-35.33 35.33-35.33-35.32zm95.61 24.95 60.72 60.72 60.74-60.74 35.35 35.3-.01.03L256.37 413l-96.05-96.05-.05-.05 35.38-35.28m146.39-24.93 35.33-35.33 35.33 35.33-35.33 35.33-35.33-35.33z"/><path class="st1" d="M292.2 256.65h.01l-35.84-35.84-26.5 26.49-3.04 3.04-6.28 6.28-.05.05.05.05 35.82 35.83 35.86-35.86.01-.02-.04-.02"/></svg>