<svg width="113" height="113" viewBox="0 0 113 113" fill="none" xmlns="http://www.w3.org/2000/svg">
<g clip-path="url(#clip0_4062_7751)">
<path d="M65.91 72.37H43V74.37H65.91V72.37Z" fill="white"/>
<path d="M48.73 84.83H31.55V86.83H48.73V84.83Z" fill="white"/>
<path d="M37.27 72.38H25.83V74.38H37.27V72.38Z" fill="white"/>
<path d="M65.92 66.59H48.73V68.59H65.92V66.59Z" fill="white"/>
<path d="M42.9801 66.59H31.5601V68.59H42.9801V66.59Z" fill="white"/>
<path d="M65.91 40.71H37.27V42.71H65.91V40.71Z" fill="white"/>
<path d="M43.0001 34.06H31.5601V36.06H43.0001V34.06Z" fill="white"/>
<path d="M81.1101 53.29C83.1157 49.8039 84.1696 45.8518 84.1661 41.83C84.1626 37.8081 83.1018 33.8579 81.0901 30.3753C79.0784 26.8928 76.1864 24.0003 72.7042 21.988C69.222 19.9756 65.2719 18.9142 61.25 18.91H37.25V21.77H61.25C64.3367 21.7743 67.3808 22.4901 70.146 23.8619C72.9111 25.2336 75.3227 27.2244 77.1935 29.6795C79.0644 32.1346 80.344 34.9879 80.9331 38.0179C81.5221 41.0478 81.4048 44.1728 80.59 47.15C81.1884 44.5788 81.1993 41.9058 80.622 39.3299C80.0447 36.7539 78.8941 34.3412 77.2557 32.2713C75.6172 30.2014 73.5332 28.5276 71.1586 27.3743C68.784 26.221 66.1799 25.6179 63.5401 25.61H43V28.48H63.5601C65.8631 28.4854 68.1324 29.0337 70.1838 30.0805C72.2353 31.1272 74.011 32.6428 75.367 34.5044C76.723 36.3659 77.621 38.5209 77.9881 40.7945C78.3553 43.0681 78.1812 45.3962 77.4801 47.59C77.9245 45.8938 77.9746 44.1184 77.6263 42.3999C77.278 40.6814 76.5408 39.0655 75.471 37.6762C74.4013 36.2869 73.0275 35.1611 71.4551 34.3852C69.8827 33.6092 68.1535 33.2038 66.4001 33.2H48.7201V36.06H66.4001C67.9057 36.0634 69.3841 36.4611 70.6883 37.2135C71.9924 37.9659 73.0767 39.0467 73.8333 40.3485C74.5899 41.6502 74.9923 43.1274 75.0005 44.633C75.0087 46.1386 74.6224 47.6201 73.88 48.93C71.3209 47.9755 68.6114 47.4878 65.88 47.49H43V50.35H65.92C70.5838 50.3627 75.0976 51.9984 78.6869 54.9764C82.2761 57.9543 84.7168 62.0887 85.59 66.67C84.718 62.881 82.5887 59.4989 79.5489 57.0747C76.5091 54.6506 72.7381 53.3271 68.85 53.32H37.2701V56.19H68.89C72.319 56.2042 75.629 57.4485 78.2184 59.6965C80.8077 61.9445 82.5044 65.047 83 68.44C82.5123 65.8057 81.1187 63.425 79.0604 61.7101C77.0022 59.9953 74.4091 59.0542 71.7301 59.05H37.28V61.92H71.75C74.0283 61.92 76.2132 62.825 77.8241 64.4359C79.435 66.0469 80.34 68.2318 80.34 70.51C80.34 72.7882 79.435 74.9731 77.8241 76.584C76.2132 78.195 74.0283 79.1 71.75 79.1H31.55V82H71.75C74.4299 81.9898 77.0218 81.0424 79.0765 79.3219C81.1311 77.6014 82.5192 75.2164 83 72.58C82.5014 75.9789 80.7984 79.0856 78.2011 81.3341C75.6039 83.5826 72.2853 84.8232 68.85 84.83H54.46V87.69H68.85C72.5836 87.6847 76.2143 86.4654 79.1942 84.216C82.1741 81.9666 84.3417 78.8092 85.3701 75.22C84.3002 79.5732 81.8037 83.4429 78.2786 86.2123C74.7535 88.9816 70.4028 90.491 65.92 90.5H37.3101V93.36H65.88C70.5301 93.3596 75.0701 91.9455 78.8979 89.3053C82.7256 86.665 85.6602 82.9233 87.3123 78.5767C88.9644 74.2301 89.2559 69.4838 88.1482 64.9677C87.0405 60.4515 84.5859 56.3789 81.1101 53.29Z" fill="white"/>
</g>
<defs>
<clipPath id="clip0_4062_7751">
<rect width="112.15" height="112.15" fill="white"/>
</clipPath>
</defs>
</svg>
