<svg xmlns="http://www.w3.org/2000/svg" viewBox="0 0 512 512" style="enable-background:new 0 0 512 512" xml:space="preserve"><path d="M309.37 351.09h-19.23l-23.03-21.13v-10.84l23.84-22.76v-36.03l31.15-20.32 35.49 26.82-48.22 84.26zm-79.65-56.89 3.52-33.86L221.59 230h68.81l-11.38 30.34 3.25 33.86h-52.55zm15.71 35.76-23.03 21.4h-19.5l-48.49-84.52 35.76-26.55 31.42 20.05v36.03l23.84 22.76v10.83zm-42.8-162.54H309.1l12.73 54.18H190.17l12.46-54.18zM256 99.96l-135.18 78.02v156.04L256 412.04l135.18-78.02V177.98L256 99.96z" style="fill:#03316c"/></svg>