<svg xmlns="http://www.w3.org/2000/svg" viewBox="0 0 512 512" style="enable-background:new 0 0 512 512" xml:space="preserve"><path style="fill:none" d="M222.49 203.85h72v72h-72z"/><path d="M291.07 195.8c0-44.8-21.83-83.38-38.45-95.9 0 0-1.28-.71-1.15 1.1-1.37 86.56-45.59 110.02-69.89 141.59-56.09 72.93-3.97 152.87 49.21 167.65 29.63 8.29-6.88-14.64-11.6-63.01-5.77-58.39 71.88-103.02 71.88-151.43z" style="fill:#1b2143"/><path d="M316.55 225.3c-.35-.22-.84-.4-1.15.18-.93 10.89-12.04 34.17-26.15 55.6-47.84 72.58-20.59 107.59-5.25 126.42 8.91 10.89 0 0 22.22-11.16 27.47-16.67 45.28-45.51 47.93-77.52 4.38-51.59-26.57-84.09-37.6-93.52z" style="fill:#2ca6e0"/></svg>