<svg xmlns="http://www.w3.org/2000/svg" viewBox="0 0 512 512" style="enable-background:new 0 0 512 512" xml:space="preserve"><path d="M230.76 131.67c32.54-5.49 66.87-.14 95.98 15.45 50.13 25.88 83.3 80.23 85 136.44.2 25.26.06 50.53.07 75.79.6 11.82-9.57 22.77-21.41 22.95-12.34.92-23.52-10.67-22.96-22.83 0-22.89.11-45.75-.03-68.62.2-9.48-5.75-18.94-14.85-22.02-13.49-5.6-29.86 5.93-29.61 20.44-.21 23.35.09 46.7-.12 70.06.03 8.54-4.78 17.08-12.61 20.76-8.45 4.47-19.66 2.27-25.86-4.97-5.53-5.53-6.4-13.79-6.11-21.19.03-21.68.14-43.37-.04-65.03-.27-13.03-13.62-24.05-26.49-20.97-10.6 1.91-18.23 12.24-17.99 22.81-.12 22.81.02 45.62-.03 68.43.47 11.21-8.5 22.08-19.8 23.05-9.41 1.33-19.08-4.47-22.67-13.21-2.7-5.86-2.09-12.44-2.15-18.67 0-20.4.09-40.76-.02-61.18-.05-13.01-13.24-24.09-26.11-21.32-10.73 1.8-18.7 12.33-18.22 23.07-.03 22.85.09 45.68-.03 68.51.29 10.9-8.35 21.33-19.21 22.71-13.19 2.39-25.89-9.57-25.31-22.74-.05-23.43 0-46.85 0-70.28.12-37.33 13.55-74.47 37.41-103.2 23.27-28.34 56.84-48.29 93.17-54.24z" style="fill:#5841d8"/></svg>