<svg xmlns="http://www.w3.org/2000/svg" viewBox="0 0 512 512" style="enable-background:new 0 0 512 512" xml:space="preserve"><path d="m203.69 256 92.52 92.52 58.36-58.36c10.68-9.25 26.33-9.25 36.3.71 9.96 9.96 10.68 25.62.71 36.3l-76.86 77.57c-10.68 9.96-27.04 9.96-37.01 0L165.97 293.01v66.19c0 14.23-12.1 26.33-26.33 26.33-14.23 0-26.33-11.39-26.33-26.33V152.81c0-14.23 12.1-26.33 26.33-26.33 14.23 0 26.33 12.1 26.33 26.33V219l111.02-111.73c10.68-9.96 27.04-9.96 37.01 0l77.57 77.57c9.25 10.68 9.25 26.33-.71 36.3-9.96 9.96-25.62 10.68-36.3.71l-58.36-58.36L203.69 256zm92.52-26.33c-10.68 0-20.64 6.41-24.2 16.37-4.27 9.96-2.14 21.35 5.69 28.47 7.83 7.83 19.22 9.96 28.47 5.69 9.96-4.27 16.37-13.52 16.37-24.2 0-7.12-2.85-13.52-7.83-18.5-4.98-4.99-11.39-7.83-18.5-7.83z" style="fill:#22af91"/></svg>