<svg xmlns="http://www.w3.org/2000/svg" viewBox="0 0 512 512" style="enable-background:new 0 0 512 512" xml:space="preserve"><path d="M301.22 204.19h-90.05c-3.83 0-6.93 3.1-6.93 6.93v90.05c0 3.83 3.1 6.93 6.93 6.93h90.05c3.83 0 6.93-3.1 6.93-6.93v-90.05c-.01-3.83-3.11-6.93-6.93-6.93zM197.28 100.28h-90.05c-3.83 0-6.93 3.1-6.93 6.93v90.05c0 3.83 3.1 6.93 6.93 6.93h90.05c3.83 0 6.93-3.1 6.93-6.93v-90.05c-.01-3.83-3.11-6.93-6.93-6.93zM405.07 100.28h-90.05c-3.83 0-6.93 3.1-6.93 6.93v90.05c0 3.83 3.1 6.93 6.93 6.93h90.05c3.83 0 6.93-3.1 6.93-6.93v-90.05c0-3.83-3.1-6.93-6.93-6.93zM197.28 308.08h-90.05c-3.83 0-6.93 3.1-6.93 6.93v90.05c0 3.83 3.1 6.93 6.93 6.93h90.05c3.83 0 6.93-3.1 6.93-6.93v-90.05c-.01-3.83-3.11-6.93-6.93-6.93zM405.07 308.08h-90.05c-3.83 0-6.93 3.1-6.93 6.93v90.05c0 3.83 3.1 6.93 6.93 6.93h90.05c3.83 0 6.93-3.1 6.93-6.93v-90.05c0-3.83-3.1-6.93-6.93-6.93z"/></svg>